<svg width="40" height="40" viewBox="0 0 40 40" fill="none" xmlns="http://www.w3.org/2000/svg">
  <defs>
    <linearGradient id="softwareGradient" x1="0" y1="0" x2="40" y2="40" gradientUnits="userSpaceOnUse">
      <stop offset="0.2" stop-color="#FFDB6E"/>
      <stop offset="1" stop-color="#FFBC5E"/>
    </linearGradient>
  </defs>
  <!-- Monitor -->
  <rect x="6" y="14" width="20" height="14" rx="2" stroke="url(#softwareGradient)" stroke-width="2" fill="none"/>
  <rect x="12" y="30" width="8" height="2" rx="1" stroke="url(#softwareGradient)" stroke-width="2" fill="none"/>
  <!-- Large Gear -->
  <g>
    <circle cx="26" cy="14" r="5" stroke="url(#softwareGradient)" stroke-width="2" fill="none"/>
    <g stroke="url(#softwareGradient)" stroke-width="2">
      <path d="M26 8V6"/>
      <path d="M26 22V20"/>
      <path d="M20 14H18"/>
      <path d="M34 14H32"/>
      <path d="M22.5 9.5L21.1 8.1"/>
      <path d="M29.9 19.9L28.5 18.5"/>
      <path d="M22.5 18.5L21.1 19.9"/>
      <path d="M29.9 8.1L28.5 9.5"/>
    </g>
    <!-- Code Brackets -->
    <path d="M24 13l-1 1 1 1" stroke="url(#softwareGradient)" stroke-width="1.5" stroke-linecap="round" stroke-linejoin="round"/>
    <path d="M28 13l1 1-1 1" stroke="url(#softwareGradient)" stroke-width="1.5" stroke-linecap="round" stroke-linejoin="round"/>
    <path d="M25.5 15h1" stroke="url(#softwareGradient)" stroke-width="1.5" stroke-linecap="round"/>
  </g>
  <!-- Small Gear -->
  <g>
    <circle cx="32" cy="24" r="3" stroke="url(#softwareGradient)" stroke-width="2" fill="none"/>
    <g stroke="url(#softwareGradient)" stroke-width="1.2">
      <path d="M32 21.2V20.5"/>
      <path d="M32 26.8V26.1"/>
      <path d="M29.2 24H28.5"/>
      <path d="M35.5 24H34.8"/>
      <path d="M30.1 22.1l-.5-.5"/>
      <path d="M33.9 25.9l.5.5"/>
      <path d="M30.1 25.9l-.5.5"/>
      <path d="M33.9 22.1l.5-.5"/>
    </g>
  </g>
  <!-- Connecting Line -->
  <path d="M26 19v3c0 1.1.9 2 2 2h2" stroke="url(#softwareGradient)" stroke-width="2" fill="none"/>
</svg> 